<mxfile host="app.diagrams.net" agent="Mozilla/5.0 (Windows NT 10.0; Win64; x64) AppleWebKit/537.36 (KHTML, like Gecko) Chrome/130.0.0.0 Safari/537.36" version="24.8.2">
  <diagram name="Página-1" id="-24_yZQOfbj3OQJfO07C">
    <mxGraphModel dx="954" dy="600" grid="1" gridSize="10" guides="1" tooltips="1" connect="1" arrows="1" fold="1" page="1" pageScale="1" pageWidth="827" pageHeight="1169" math="0" shadow="0">
      <root>
        <mxCell id="0" />
        <mxCell id="1" parent="0" />
        <mxCell id="6-74U6Mi0UwLJI_alVvZ-9" value="Estudantes&amp;nbsp;&lt;div&gt;(Usuário)&lt;/div&gt;" style="shape=umlActor;verticalLabelPosition=bottom;verticalAlign=top;html=1;" vertex="1" parent="1">
          <mxGeometry x="100" y="150" width="30" height="60" as="geometry" />
        </mxCell>
        <mxCell id="6-74U6Mi0UwLJI_alVvZ-11" value="Administrador&amp;nbsp;&lt;div&gt;do sistema&amp;nbsp;&lt;/div&gt;" style="shape=umlActor;verticalLabelPosition=bottom;verticalAlign=top;html=1;" vertex="1" parent="1">
          <mxGeometry x="100" y="300" width="30" height="60" as="geometry" />
        </mxCell>
        <mxCell id="6-74U6Mi0UwLJI_alVvZ-12" value="" style="shape=umlFrame;whiteSpace=wrap;html=1;pointerEvents=0;width=10;height=15;" vertex="1" parent="1">
          <mxGeometry x="170" y="50" width="520" height="510" as="geometry" />
        </mxCell>
        <mxCell id="6-74U6Mi0UwLJI_alVvZ-13" value="Use Case" style="ellipse;whiteSpace=wrap;html=1;" vertex="1" parent="1">
          <mxGeometry x="220" y="100" width="140" height="70" as="geometry" />
        </mxCell>
        <mxCell id="6-74U6Mi0UwLJI_alVvZ-14" value="Use Case" style="ellipse;whiteSpace=wrap;html=1;" vertex="1" parent="1">
          <mxGeometry x="230" y="250" width="140" height="70" as="geometry" />
        </mxCell>
        <mxCell id="6-74U6Mi0UwLJI_alVvZ-15" value="Use Case" style="ellipse;whiteSpace=wrap;html=1;" vertex="1" parent="1">
          <mxGeometry x="220" y="410" width="140" height="70" as="geometry" />
        </mxCell>
        <mxCell id="6-74U6Mi0UwLJI_alVvZ-16" value="Use Case" style="ellipse;whiteSpace=wrap;html=1;" vertex="1" parent="1">
          <mxGeometry x="510" y="90" width="140" height="70" as="geometry" />
        </mxCell>
        <mxCell id="6-74U6Mi0UwLJI_alVvZ-17" value="Use Case" style="ellipse;whiteSpace=wrap;html=1;" vertex="1" parent="1">
          <mxGeometry x="520" y="260" width="140" height="70" as="geometry" />
        </mxCell>
        <mxCell id="6-74U6Mi0UwLJI_alVvZ-18" value="Use Case" style="ellipse;whiteSpace=wrap;html=1;" vertex="1" parent="1">
          <mxGeometry x="520" y="400" width="140" height="70" as="geometry" />
        </mxCell>
      </root>
    </mxGraphModel>
  </diagram>
</mxfile>
